# xmcd CD database file generated by Grip 3.2.0
# 
# Track frame offsets:
#       150
#       10942
#       19762
#       29092
#       39682
#       49125
#       60127
#       70357
#       81360
#       91837
#       101075
#       110752
#       123977
#       132900
#       143387
#       157145
#       167682
#       179885
# 
# Disc length: 2552 seconds
# 
# Revision: 1
# Processed by: cddbd v1.5.1PL2 Copyright (c) Steve Scherf et al.
# Submitted via: Grip 3.2.0
# 
DISCID=fb09f612
DTITLE=The Beatles - Past Masters, Volume One
DYEAR=1988
DGENRE=Rock
TTITLE0=Love Me Do
TTITLE1=From Me To You
TTITLE2=Thank You Girl
TTITLE3=She Loves You
TTITLE4=I'll Get You
TTITLE5=I Want To Hold Your Hand
TTITLE6=This Boy
TTITLE7=Komm, Gib Mir Deine Hand
TTITLE8=Sie Liebt Dich
TTITLE9=Long Tall Sally
TTITLE10=I Call Your Name
TTITLE11=Slow Down
TTITLE12=Matchbox
TTITLE13=I Feel Fine
TTITLE14=She's A Woman
TTITLE15=Bad Boy
TTITLE16=Yes It Is
TTITLE17=I'm Down
EXTD=
EXTT0=
EXTT1=
EXTT2=
EXTT3=
EXTT4=
EXTT5=
EXTT6=
EXTT7=
EXTT8=
EXTT9=
EXTT10=
EXTT11=
EXTT12=
EXTT13=
EXTT14=
EXTT15=
EXTT16=
EXTT17=
PLAYORDER=
